<svg xmlns="http://www.w3.org/2000/svg" viewBox="0 0 123.4 91.89"><defs><style>.cls-1{fill:none;stroke:#fff;stroke-miterlimit:10;stroke-width:3px;}</style></defs><g id="Layer_2" data-name="Layer 2"><g id="OBJECTS"><path class="cls-1" d="M54.08,16.62a15.16,15.16,0,0,1-1,5.37l-14,36.84L30.73,80.66A15.11,15.11,0,0,1,2.49,69.9L24.86,11.23A15.11,15.11,0,0,1,39,1.51h.14a15.28,15.28,0,0,1,5.23,1A15.11,15.11,0,0,1,54.08,16.62Z"/><path class="cls-1" d="M66.86,89.4a15.13,15.13,0,0,1-19.49-8.74L39.05,58.83,53.09,22A15.1,15.1,0,0,0,44.35,2.5a15.28,15.28,0,0,0-5.23-1,15.11,15.11,0,0,1,14.12,9.72l8.46,22.2L75.6,69.9A15.11,15.11,0,0,1,66.86,89.4Z"/><path class="cls-1" d="M54.08,16.62a15.16,15.16,0,0,1-1,5.37l-14,36.84L25,22A15.1,15.1,0,0,1,33.74,2.5a15.29,15.29,0,0,1,5.24-1h.14a15.28,15.28,0,0,1,5.23,1A15.11,15.11,0,0,1,54.08,16.62Z"/><path class="cls-1" d="M99.39,16.61a15,15,0,0,1-1,5.38l-14,36.84L76,80.66A15.08,15.08,0,0,1,61.7,90.38,15.09,15.09,0,0,0,75.6,69.9L61.7,33.43l8.46-22.2A15.11,15.11,0,0,1,84.28,1.51h.14a15.29,15.29,0,0,1,5.24,1A15.11,15.11,0,0,1,99.39,16.61Z"/><path class="cls-1" d="M112.17,89.4h0a15.12,15.12,0,0,0,8.74-19.5L98.55,11.23a15.11,15.11,0,0,0-19.5-8.74h0A15.12,15.12,0,0,0,70.31,22L92.68,80.66A15.1,15.1,0,0,0,112.17,89.4Z"/></g></g></svg>