<svg xmlns="http://www.w3.org/2000/svg" viewBox="0 0 98.69 89.43"><defs><style>.cls-1{fill:#138B11;}.cls-2{fill:#65b262;}</style></defs><g id="Layer_2" data-name="Layer 2"><g id="OBJECTS"><polygon class="cls-1" points="17.75 14.1 17.75 89.43 35.5 82.37 35.5 21.18 17.75 14.1"/><polygon class="cls-1" points="49.35 12.65 17.64 0 0 7.02 49.35 26.7 49.35 12.65"/><polygon class="cls-1" points="80.94 14.1 80.94 89.43 63.19 82.37 63.19 21.18 80.94 14.1"/><polygon class="cls-2" points="80.94 14.08 80.94 14.1 49.35 26.7 17.75 14.1 17.75 14.08 0 7.02 0 26.64 0 82.37 17.75 89.43 17.75 33.72 49.35 46.32 80.94 33.72 80.94 89.43 98.69 82.37 98.69 26.64 98.69 7.02 80.94 14.08"/><polygon class="cls-1" points="49.35 12.65 81.05 0 98.69 7.02 49.35 26.7 49.35 12.65"/></g></g></svg>